# xmcd
#
# Track frame offsets: 
#        150
#        13760
#        23674
#        37504
#        52040
#        65678
#        77824
#        90443
#        104802
#        122227
#        134953
#        152636
#        165997
#        182396
#
# Disc length: 2655 seconds
#
# Revision: 0
# Processed by: cddbd v1.5.2PL0 Copyright (c) Steve Scherf et al.
# Submitted via: ExactAudioCopy v0.99pb5
#
DISCID=b10a5d0e
DTITLE=Roadrunners - Rhythm Rockin' Blues
DYEAR=1999
DGENRE=Blues
TTITLE0=Rhythm Rockin' Blues
TTITLE1=Rock Awhile
TTITLE2=Yeah Yeah Yeah
TTITLE3=Devil With The Blue Dress On
TTITLE4=Leavin' Tennessee
TTITLE5=You Must Be Crazy Or Something
TTITLE6=Rockin' Ever Since I Met My Baby
TTITLE7=Next Time You See Me
TTITLE8=Every Night In The Week
TTITLE9=Real Good Man
TTITLE10=Baby Baby What's Wrong
TTITLE11=I'll Be What You Want Me To Be
TTITLE12=Young Girl
TTITLE13=Ho Ho Ho
EXTD=
EXTT0=
EXTT1=
EXTT2=
EXTT3=
EXTT4=
EXTT5=
EXTT6=
EXTT7=
EXTT8=
EXTT9=
EXTT10=
EXTT11=
EXTT12=
EXTT13=
PLAYORDER=
